# xmcd CD database file
#
# Track frame offsets:
#	150
#	25050
#	42447
#	67322
#
# Disc length: 1125 seconds
#
# Revision: 0
# Processed by: cddbd v1.5.1PL2 Copyright (c) Steve Scherf et al.
# Submitted via: CDex 1.51
#
DISCID=34046304
DTITLE=LEON - 湘南メモリー
DYEAR=1900
DGENRE=J-POP
TTITLE0=湘南メモリー
TTITLE1=夏の脱・少女（セレモニー）
TTITLE2=湘南メモリー（オリジナル・カラオケ）
TTITLE3=夏の脱・少女（セレモニー）（オリジナル・カラオケ）
EXTD=
EXTT0=
EXTT1=
EXTT2=
EXTT3=
PLAYORDER=
